<mxfile host="Electron" modified="2023-09-05T11:45:38.873Z" agent="Mozilla/5.0 (Windows NT 10.0; Win64; x64) AppleWebKit/537.36 (KHTML, like Gecko) draw.io/21.6.5 Chrome/114.0.5735.243 Electron/25.3.1 Safari/537.36" etag="uAzg9ICxT8v9b8v7l6kM" version="21.6.5" type="device">
  <diagram name="PÃ¡gina-1" id="yi7HVxkvdeWD4CvACHMk">
    <mxGraphModel dx="3782" dy="593" grid="1" gridSize="10" guides="1" tooltips="1" connect="1" arrows="1" fold="1" page="1" pageScale="1" pageWidth="827" pageHeight="1169" math="0" shadow="0">
      <root>
        <mxCell id="0" />
        <mxCell id="1" parent="0" />
        <mxCell id="PSCNETZQlT987C8pUvB9-1" style="edgeStyle=orthogonalEdgeStyle;rounded=0;orthogonalLoop=1;jettySize=auto;html=1;" edge="1" source="PSCNETZQlT987C8pUvB9-2" target="PSCNETZQlT987C8pUvB9-5" parent="1">
          <mxGeometry relative="1" as="geometry" />
        </mxCell>
        <mxCell id="PSCNETZQlT987C8pUvB9-2" value="Inicio" style="strokeWidth=2;html=1;shape=mxgraph.flowchart.terminator;whiteSpace=wrap;" vertex="1" parent="1">
          <mxGeometry x="3410" y="3550" width="100" height="60" as="geometry" />
        </mxCell>
        <mxCell id="PSCNETZQlT987C8pUvB9-3" style="edgeStyle=orthogonalEdgeStyle;rounded=0;orthogonalLoop=1;jettySize=auto;html=1;" edge="1" source="PSCNETZQlT987C8pUvB9-5" target="PSCNETZQlT987C8pUvB9-118" parent="1">
          <mxGeometry relative="1" as="geometry" />
        </mxCell>
        <mxCell id="PSCNETZQlT987C8pUvB9-5" value="parada != false" style="strokeWidth=2;html=1;shape=mxgraph.flowchart.decision;whiteSpace=wrap;" vertex="1" parent="1">
          <mxGeometry x="3410" y="3670" width="100" height="100" as="geometry" />
        </mxCell>
        <mxCell id="PSCNETZQlT987C8pUvB9-6" style="edgeStyle=orthogonalEdgeStyle;rounded=0;orthogonalLoop=1;jettySize=auto;html=1;" edge="1" source="PSCNETZQlT987C8pUvB9-7" target="PSCNETZQlT987C8pUvB9-113" parent="1">
          <mxGeometry relative="1" as="geometry">
            <mxPoint x="3460" y="4160" as="targetPoint" />
          </mxGeometry>
        </mxCell>
        <mxCell id="PSCNETZQlT987C8pUvB9-7" value="opcaoEscolhida" style="html=1;strokeWidth=2;shape=manualInput;whiteSpace=wrap;rounded=1;size=26;arcSize=11;" vertex="1" parent="1">
          <mxGeometry x="3410" y="4040" width="100" height="60" as="geometry" />
        </mxCell>
        <mxCell id="PSCNETZQlT987C8pUvB9-8" style="edgeStyle=orthogonalEdgeStyle;rounded=0;orthogonalLoop=1;jettySize=auto;html=1;" edge="1" source="PSCNETZQlT987C8pUvB9-10" target="PSCNETZQlT987C8pUvB9-13" parent="1">
          <mxGeometry relative="1" as="geometry">
            <mxPoint x="5529.860000000001" y="4360" as="targetPoint" />
          </mxGeometry>
        </mxCell>
        <mxCell id="PSCNETZQlT987C8pUvB9-186" style="edgeStyle=orthogonalEdgeStyle;rounded=0;orthogonalLoop=1;jettySize=auto;html=1;" edge="1" parent="1" source="PSCNETZQlT987C8pUvB9-10" target="PSCNETZQlT987C8pUvB9-187">
          <mxGeometry relative="1" as="geometry">
            <mxPoint x="5490" y="4790" as="targetPoint" />
            <Array as="points">
              <mxPoint x="5690" y="4270" />
              <mxPoint x="5690" y="4790" />
              <mxPoint x="5529" y="4790" />
            </Array>
          </mxGeometry>
        </mxCell>
        <mxCell id="PSCNETZQlT987C8pUvB9-10" value="" style="verticalLabelPosition=bottom;verticalAlign=top;html=1;shape=hexagon;perimeter=hexagonPerimeter2;arcSize=6;size=0.27;" vertex="1" parent="1">
          <mxGeometry x="5459.860000000001" y="4240" width="140" height="60" as="geometry" />
        </mxCell>
        <mxCell id="PSCNETZQlT987C8pUvB9-11" value="i=0 ; i&amp;lt;quantidadeCadastro ; i++" style="text;html=1;strokeColor=none;fillColor=none;align=center;verticalAlign=middle;whiteSpace=wrap;rounded=0;" vertex="1" parent="1">
          <mxGeometry x="5499.860000000001" y="4255" width="60" height="30" as="geometry" />
        </mxCell>
        <mxCell id="PSCNETZQlT987C8pUvB9-12" style="edgeStyle=orthogonalEdgeStyle;rounded=0;orthogonalLoop=1;jettySize=auto;html=1;entryX=0.5;entryY=0;entryDx=0;entryDy=0;" edge="1" source="PSCNETZQlT987C8pUvB9-13" target="PSCNETZQlT987C8pUvB9-16" parent="1">
          <mxGeometry relative="1" as="geometry" />
        </mxCell>
        <mxCell id="PSCNETZQlT987C8pUvB9-13" value="alunoCadastro[i].nome" style="html=1;strokeWidth=2;shape=manualInput;whiteSpace=wrap;rounded=1;size=26;arcSize=11;" vertex="1" parent="1">
          <mxGeometry x="5459.860000000001" y="4330" width="140" height="60" as="geometry" />
        </mxCell>
        <mxCell id="PSCNETZQlT987C8pUvB9-14" style="edgeStyle=orthogonalEdgeStyle;rounded=0;orthogonalLoop=1;jettySize=auto;html=1;" edge="1" source="PSCNETZQlT987C8pUvB9-16" target="PSCNETZQlT987C8pUvB9-19" parent="1">
          <mxGeometry relative="1" as="geometry">
            <mxPoint x="5529.860000000001" y="4600" as="targetPoint" />
          </mxGeometry>
        </mxCell>
        <mxCell id="PSCNETZQlT987C8pUvB9-185" style="edgeStyle=orthogonalEdgeStyle;rounded=0;orthogonalLoop=1;jettySize=auto;html=1;entryX=0;entryY=0.5;entryDx=0;entryDy=0;" edge="1" parent="1" source="PSCNETZQlT987C8pUvB9-16" target="PSCNETZQlT987C8pUvB9-10">
          <mxGeometry relative="1" as="geometry">
            <Array as="points">
              <mxPoint x="5650" y="4470" />
              <mxPoint x="5650" y="4760" />
              <mxPoint x="5370" y="4760" />
              <mxPoint x="5370" y="4270" />
            </Array>
          </mxGeometry>
        </mxCell>
        <mxCell id="PSCNETZQlT987C8pUvB9-16" value="" style="verticalLabelPosition=bottom;verticalAlign=top;html=1;shape=hexagon;perimeter=hexagonPerimeter2;arcSize=6;size=0.27;" vertex="1" parent="1">
          <mxGeometry x="5459.860000000001" y="4440" width="140" height="60" as="geometry" />
        </mxCell>
        <mxCell id="PSCNETZQlT987C8pUvB9-17" value="i=0 ; i&amp;lt;4; i++" style="text;html=1;strokeColor=none;fillColor=none;align=center;verticalAlign=middle;whiteSpace=wrap;rounded=0;" vertex="1" parent="1">
          <mxGeometry x="5479.860000000001" y="4455" width="110" height="30" as="geometry" />
        </mxCell>
        <mxCell id="PSCNETZQlT987C8pUvB9-183" style="edgeStyle=orthogonalEdgeStyle;rounded=0;orthogonalLoop=1;jettySize=auto;html=1;" edge="1" parent="1" source="PSCNETZQlT987C8pUvB9-19" target="PSCNETZQlT987C8pUvB9-182">
          <mxGeometry relative="1" as="geometry" />
        </mxCell>
        <mxCell id="PSCNETZQlT987C8pUvB9-19" value="alunoCadastro[i].notas" style="html=1;strokeWidth=2;shape=manualInput;whiteSpace=wrap;rounded=1;size=26;arcSize=11;" vertex="1" parent="1">
          <mxGeometry x="5464.860000000001" y="4530" width="130" height="60" as="geometry" />
        </mxCell>
        <mxCell id="PSCNETZQlT987C8pUvB9-20" style="edgeStyle=orthogonalEdgeStyle;rounded=0;orthogonalLoop=1;jettySize=auto;html=1;entryX=0.5;entryY=0;entryDx=0;entryDy=0;" edge="1" source="PSCNETZQlT987C8pUvB9-22" target="PSCNETZQlT987C8pUvB9-26" parent="1">
          <mxGeometry relative="1" as="geometry" />
        </mxCell>
        <mxCell id="PSCNETZQlT987C8pUvB9-21" style="edgeStyle=orthogonalEdgeStyle;rounded=0;orthogonalLoop=1;jettySize=auto;html=1;" edge="1" source="PSCNETZQlT987C8pUvB9-22" parent="1">
          <mxGeometry relative="1" as="geometry">
            <mxPoint x="5533.010000000001" y="5684.999999999999" as="targetPoint" />
            <Array as="points">
              <mxPoint x="5773.010000000001" y="4972.999999999999" />
              <mxPoint x="5773.010000000001" y="5642.999999999999" />
              <mxPoint x="5533.010000000001" y="5642.999999999999" />
            </Array>
          </mxGeometry>
        </mxCell>
        <mxCell id="PSCNETZQlT987C8pUvB9-22" value="" style="verticalLabelPosition=bottom;verticalAlign=top;html=1;shape=hexagon;perimeter=hexagonPerimeter2;arcSize=6;size=0.27;" vertex="1" parent="1">
          <mxGeometry x="5459.010000000001" y="4942.999999999999" width="140" height="60" as="geometry" />
        </mxCell>
        <mxCell id="PSCNETZQlT987C8pUvB9-23" value="i=0 i&amp;lt;quantidadeCadastro;&lt;br&gt;i++" style="text;html=1;strokeColor=none;fillColor=none;align=center;verticalAlign=middle;whiteSpace=wrap;rounded=0;" vertex="1" parent="1">
          <mxGeometry x="5475.010000000001" y="4958.999999999999" width="110" height="30" as="geometry" />
        </mxCell>
        <mxCell id="PSCNETZQlT987C8pUvB9-24" style="edgeStyle=orthogonalEdgeStyle;rounded=0;orthogonalLoop=1;jettySize=auto;html=1;" edge="1" source="PSCNETZQlT987C8pUvB9-26" target="PSCNETZQlT987C8pUvB9-30" parent="1">
          <mxGeometry relative="1" as="geometry">
            <mxPoint x="5529.010000000001" y="5152.999999999999" as="targetPoint" />
          </mxGeometry>
        </mxCell>
        <mxCell id="PSCNETZQlT987C8pUvB9-25" style="edgeStyle=orthogonalEdgeStyle;rounded=0;orthogonalLoop=1;jettySize=auto;html=1;entryX=0;entryY=0.5;entryDx=0;entryDy=0;" edge="1" source="PSCNETZQlT987C8pUvB9-26" target="PSCNETZQlT987C8pUvB9-22" parent="1">
          <mxGeometry relative="1" as="geometry">
            <Array as="points">
              <mxPoint x="5733.010000000001" y="5072.999999999999" />
              <mxPoint x="5733.010000000001" y="5602.999999999999" />
              <mxPoint x="5213.010000000001" y="5602.999999999999" />
              <mxPoint x="5213.010000000001" y="4972.999999999999" />
            </Array>
          </mxGeometry>
        </mxCell>
        <mxCell id="PSCNETZQlT987C8pUvB9-26" value="" style="verticalLabelPosition=bottom;verticalAlign=top;html=1;shape=hexagon;perimeter=hexagonPerimeter2;arcSize=6;size=0.27;" vertex="1" parent="1">
          <mxGeometry x="5459.010000000001" y="5042.999999999999" width="140" height="60" as="geometry" />
        </mxCell>
        <mxCell id="PSCNETZQlT987C8pUvB9-27" value="int j=i j&amp;lt;quantidadeCadastro;&lt;br&gt;j++" style="text;html=1;strokeColor=none;fillColor=none;align=center;verticalAlign=middle;whiteSpace=wrap;rounded=0;" vertex="1" parent="1">
          <mxGeometry x="5475.010000000001" y="5058.999999999999" width="110" height="30" as="geometry" />
        </mxCell>
        <mxCell id="PSCNETZQlT987C8pUvB9-28" style="edgeStyle=orthogonalEdgeStyle;rounded=0;orthogonalLoop=1;jettySize=auto;html=1;" edge="1" source="PSCNETZQlT987C8pUvB9-30" target="PSCNETZQlT987C8pUvB9-33" parent="1">
          <mxGeometry relative="1" as="geometry">
            <mxPoint x="5338.010000000001" y="5272.999999999999" as="targetPoint" />
          </mxGeometry>
        </mxCell>
        <mxCell id="PSCNETZQlT987C8pUvB9-29" style="edgeStyle=orthogonalEdgeStyle;rounded=0;orthogonalLoop=1;jettySize=auto;html=1;" edge="1" source="PSCNETZQlT987C8pUvB9-30" target="PSCNETZQlT987C8pUvB9-39" parent="1">
          <mxGeometry relative="1" as="geometry">
            <mxPoint x="5738.010000000001" y="5352.999999999999" as="targetPoint" />
            <Array as="points">
              <mxPoint x="5698.010000000001" y="5202.999999999999" />
              <mxPoint x="5698.010000000001" y="5477.999999999999" />
            </Array>
          </mxGeometry>
        </mxCell>
        <mxCell id="PSCNETZQlT987C8pUvB9-30" value="strcmp(alunoCadastro[i].nome,&lt;br&gt;alunoCadastro[j].nome) &amp;gt; 0" style="strokeWidth=2;html=1;shape=mxgraph.flowchart.decision;whiteSpace=wrap;" vertex="1" parent="1">
          <mxGeometry x="5427.010000000001" y="5142.999999999999" width="204" height="120" as="geometry" />
        </mxCell>
        <mxCell id="PSCNETZQlT987C8pUvB9-31" value="Sim" style="text;html=1;strokeColor=none;fillColor=none;align=center;verticalAlign=middle;whiteSpace=wrap;rounded=0;" vertex="1" parent="1">
          <mxGeometry x="5338.010000000001" y="5172.999999999999" width="60" height="30" as="geometry" />
        </mxCell>
        <mxCell id="PSCNETZQlT987C8pUvB9-32" value="" style="edgeStyle=orthogonalEdgeStyle;rounded=0;orthogonalLoop=1;jettySize=auto;html=1;" edge="1" source="PSCNETZQlT987C8pUvB9-33" target="PSCNETZQlT987C8pUvB9-35" parent="1">
          <mxGeometry relative="1" as="geometry" />
        </mxCell>
        <mxCell id="PSCNETZQlT987C8pUvB9-33" value="auxiliarTrocador = alunoCadastro[i];" style="rounded=1;whiteSpace=wrap;html=1;absoluteArcSize=1;arcSize=14;strokeWidth=2;" vertex="1" parent="1">
          <mxGeometry x="5288.010000000001" y="5272.999999999999" width="100" height="44" as="geometry" />
        </mxCell>
        <mxCell id="PSCNETZQlT987C8pUvB9-34" value="" style="edgeStyle=orthogonalEdgeStyle;rounded=0;orthogonalLoop=1;jettySize=auto;html=1;" edge="1" source="PSCNETZQlT987C8pUvB9-35" target="PSCNETZQlT987C8pUvB9-37" parent="1">
          <mxGeometry relative="1" as="geometry" />
        </mxCell>
        <mxCell id="PSCNETZQlT987C8pUvB9-35" value="alunoCadastro[i] = alunoCadastro[j];" style="rounded=1;whiteSpace=wrap;html=1;absoluteArcSize=1;arcSize=14;strokeWidth=2;" vertex="1" parent="1">
          <mxGeometry x="5283.010000000001" y="5342.999999999999" width="110" height="44" as="geometry" />
        </mxCell>
        <mxCell id="PSCNETZQlT987C8pUvB9-36" style="edgeStyle=orthogonalEdgeStyle;rounded=0;orthogonalLoop=1;jettySize=auto;html=1;entryX=0;entryY=0.5;entryDx=0;entryDy=0;entryPerimeter=0;" edge="1" source="PSCNETZQlT987C8pUvB9-37" target="PSCNETZQlT987C8pUvB9-39" parent="1">
          <mxGeometry relative="1" as="geometry">
            <Array as="points">
              <mxPoint x="5338.010000000001" y="5477.999999999999" />
            </Array>
          </mxGeometry>
        </mxCell>
        <mxCell id="PSCNETZQlT987C8pUvB9-37" value="alunoCadastro[j] = auxiliarTrocador;" style="rounded=1;whiteSpace=wrap;html=1;absoluteArcSize=1;arcSize=14;strokeWidth=2;" vertex="1" parent="1">
          <mxGeometry x="5283.010000000001" y="5412.999999999999" width="110" height="44" as="geometry" />
        </mxCell>
        <mxCell id="PSCNETZQlT987C8pUvB9-38" style="edgeStyle=orthogonalEdgeStyle;rounded=0;orthogonalLoop=1;jettySize=auto;html=1;entryX=0;entryY=0.5;entryDx=0;entryDy=0;" edge="1" source="PSCNETZQlT987C8pUvB9-39" target="PSCNETZQlT987C8pUvB9-26" parent="1">
          <mxGeometry relative="1" as="geometry">
            <Array as="points">
              <mxPoint x="5528.010000000001" y="5562.999999999999" />
              <mxPoint x="5253.010000000001" y="5562.999999999999" />
              <mxPoint x="5253.010000000001" y="5072.999999999999" />
            </Array>
          </mxGeometry>
        </mxCell>
        <mxCell id="PSCNETZQlT987C8pUvB9-39" value="" style="strokeWidth=2;html=1;shape=mxgraph.flowchart.start_2;whiteSpace=wrap;" vertex="1" parent="1">
          <mxGeometry x="5513.010000000001" y="5462.999999999999" width="30" height="30" as="geometry" />
        </mxCell>
        <mxCell id="PSCNETZQlT987C8pUvB9-40" style="edgeStyle=orthogonalEdgeStyle;rounded=0;orthogonalLoop=1;jettySize=auto;html=1;" edge="1" source="PSCNETZQlT987C8pUvB9-42" parent="1">
          <mxGeometry relative="1" as="geometry">
            <mxPoint x="5533.010000000001" y="5772.999999999999" as="targetPoint" />
          </mxGeometry>
        </mxCell>
        <mxCell id="PSCNETZQlT987C8pUvB9-41" style="edgeStyle=orthogonalEdgeStyle;rounded=0;orthogonalLoop=1;jettySize=auto;html=1;" edge="1" source="PSCNETZQlT987C8pUvB9-42" target="PSCNETZQlT987C8pUvB9-164" parent="1">
          <mxGeometry relative="1" as="geometry">
            <mxPoint x="5493.010000000001" y="6208.029999999999" as="targetPoint" />
            <Array as="points">
              <mxPoint x="5693.010000000001" y="5713.029999999999" />
              <mxPoint x="5693.010000000001" y="6163.029999999999" />
              <mxPoint x="5534.010000000001" y="6163.029999999999" />
            </Array>
          </mxGeometry>
        </mxCell>
        <mxCell id="PSCNETZQlT987C8pUvB9-42" value="" style="verticalLabelPosition=bottom;verticalAlign=top;html=1;shape=hexagon;perimeter=hexagonPerimeter2;arcSize=6;size=0.27;" vertex="1" parent="1">
          <mxGeometry x="5463.010000000001" y="5682.999999999999" width="140" height="60" as="geometry" />
        </mxCell>
        <mxCell id="PSCNETZQlT987C8pUvB9-43" value="&amp;nbsp;i=0 ; i&amp;lt;quantidadeCadastro ; i++" style="text;html=1;strokeColor=none;fillColor=none;align=center;verticalAlign=middle;whiteSpace=wrap;rounded=0;" vertex="1" parent="1">
          <mxGeometry x="5503.010000000001" y="5697.999999999999" width="60" height="30" as="geometry" />
        </mxCell>
        <mxCell id="PSCNETZQlT987C8pUvB9-44" style="edgeStyle=orthogonalEdgeStyle;rounded=0;orthogonalLoop=1;jettySize=auto;html=1;entryX=0.5;entryY=0;entryDx=0;entryDy=0;" edge="1" target="PSCNETZQlT987C8pUvB9-47" parent="1">
          <mxGeometry relative="1" as="geometry">
            <mxPoint x="5533.010000000001" y="5832.999999999999" as="sourcePoint" />
          </mxGeometry>
        </mxCell>
        <mxCell id="PSCNETZQlT987C8pUvB9-45" style="edgeStyle=orthogonalEdgeStyle;rounded=0;orthogonalLoop=1;jettySize=auto;html=1;" edge="1" source="PSCNETZQlT987C8pUvB9-47" parent="1">
          <mxGeometry relative="1" as="geometry">
            <mxPoint x="5533.010000000001" y="5972.999999999999" as="targetPoint" />
          </mxGeometry>
        </mxCell>
        <mxCell id="PSCNETZQlT987C8pUvB9-46" value="]" style="edgeStyle=orthogonalEdgeStyle;rounded=0;orthogonalLoop=1;jettySize=auto;html=1;entryX=0;entryY=0.5;entryDx=0;entryDy=0;" edge="1" source="PSCNETZQlT987C8pUvB9-47" target="PSCNETZQlT987C8pUvB9-42" parent="1">
          <mxGeometry relative="1" as="geometry">
            <Array as="points">
              <mxPoint x="5653.010000000001" y="5912.999999999999" />
              <mxPoint x="5653.010000000001" y="6122.999999999999" />
              <mxPoint x="5373.010000000001" y="6122.999999999999" />
              <mxPoint x="5373.010000000001" y="5712.999999999999" />
            </Array>
          </mxGeometry>
        </mxCell>
        <mxCell id="PSCNETZQlT987C8pUvB9-47" value="" style="verticalLabelPosition=bottom;verticalAlign=top;html=1;shape=hexagon;perimeter=hexagonPerimeter2;arcSize=6;size=0.27;" vertex="1" parent="1">
          <mxGeometry x="5463.010000000001" y="5882.999999999999" width="140" height="60" as="geometry" />
        </mxCell>
        <mxCell id="PSCNETZQlT987C8pUvB9-48" value="&amp;nbsp;i=0 ; i&amp;lt;4; i++" style="text;html=1;strokeColor=none;fillColor=none;align=center;verticalAlign=middle;whiteSpace=wrap;rounded=0;" vertex="1" parent="1">
          <mxGeometry x="5483.010000000001" y="5897.999999999999" width="110" height="30" as="geometry" />
        </mxCell>
        <mxCell id="PSCNETZQlT987C8pUvB9-49" style="edgeStyle=orthogonalEdgeStyle;rounded=0;orthogonalLoop=1;jettySize=auto;html=1;entryX=0;entryY=0.5;entryDx=0;entryDy=0;" edge="1" target="PSCNETZQlT987C8pUvB9-47" parent="1">
          <mxGeometry relative="1" as="geometry">
            <Array as="points">
              <mxPoint x="5533.010000000001" y="6082.999999999999" />
              <mxPoint x="5413.010000000001" y="6082.999999999999" />
              <mxPoint x="5413.010000000001" y="5912.999999999999" />
            </Array>
            <mxPoint x="5533.010000000001" y="6032.999999999999" as="sourcePoint" />
          </mxGeometry>
        </mxCell>
        <mxCell id="PSCNETZQlT987C8pUvB9-50" value="alunoCadastro[i].nome" style="strokeWidth=2;html=1;shape=mxgraph.flowchart.display;whiteSpace=wrap;" vertex="1" parent="1">
          <mxGeometry x="5452.010000000001" y="5772.999999999999" width="146" height="60" as="geometry" />
        </mxCell>
        <mxCell id="PSCNETZQlT987C8pUvB9-51" value="alunoCadastro[i].notas" style="strokeWidth=2;html=1;shape=mxgraph.flowchart.display;whiteSpace=wrap;" vertex="1" parent="1">
          <mxGeometry x="5452.010000000001" y="5972.999999999999" width="146" height="60" as="geometry" />
        </mxCell>
        <mxCell id="PSCNETZQlT987C8pUvB9-52" value="NÃ£o" style="text;html=1;strokeColor=none;fillColor=none;align=center;verticalAlign=middle;whiteSpace=wrap;rounded=0;" vertex="1" parent="1">
          <mxGeometry x="5631.010000000001" y="5172.999999999999" width="60" height="30" as="geometry" />
        </mxCell>
        <mxCell id="PSCNETZQlT987C8pUvB9-53" style="edgeStyle=orthogonalEdgeStyle;rounded=0;orthogonalLoop=1;jettySize=auto;html=1;" edge="1" source="PSCNETZQlT987C8pUvB9-54" target="PSCNETZQlT987C8pUvB9-56" parent="1">
          <mxGeometry relative="1" as="geometry" />
        </mxCell>
        <mxCell id="PSCNETZQlT987C8pUvB9-54" value="nomePesquisa" style="html=1;strokeWidth=2;shape=manualInput;whiteSpace=wrap;rounded=1;size=26;arcSize=11;" vertex="1" parent="1">
          <mxGeometry x="4624.5" y="4763" width="100" height="60" as="geometry" />
        </mxCell>
        <mxCell id="PSCNETZQlT987C8pUvB9-55" style="edgeStyle=orthogonalEdgeStyle;rounded=0;orthogonalLoop=1;jettySize=auto;html=1;" edge="1" source="PSCNETZQlT987C8pUvB9-56" target="PSCNETZQlT987C8pUvB9-58" parent="1">
          <mxGeometry relative="1" as="geometry" />
        </mxCell>
        <mxCell id="PSCNETZQlT987C8pUvB9-56" value="acha = false;" style="rounded=1;whiteSpace=wrap;html=1;absoluteArcSize=1;arcSize=14;strokeWidth=2;" vertex="1" parent="1">
          <mxGeometry x="4624.5" y="4863" width="100" height="50" as="geometry" />
        </mxCell>
        <mxCell id="PSCNETZQlT987C8pUvB9-57" style="edgeStyle=orthogonalEdgeStyle;rounded=0;orthogonalLoop=1;jettySize=auto;html=1;" edge="1" source="PSCNETZQlT987C8pUvB9-58" target="PSCNETZQlT987C8pUvB9-63" parent="1">
          <mxGeometry relative="1" as="geometry" />
        </mxCell>
        <mxCell id="PSCNETZQlT987C8pUvB9-58" value="i=0;" style="rounded=1;whiteSpace=wrap;html=1;absoluteArcSize=1;arcSize=14;strokeWidth=2;" vertex="1" parent="1">
          <mxGeometry x="4624.5" y="4943" width="100" height="50" as="geometry" />
        </mxCell>
        <mxCell id="PSCNETZQlT987C8pUvB9-59" style="edgeStyle=orthogonalEdgeStyle;rounded=0;orthogonalLoop=1;jettySize=auto;html=1;" edge="1" source="PSCNETZQlT987C8pUvB9-60" target="PSCNETZQlT987C8pUvB9-124" parent="1">
          <mxGeometry relative="1" as="geometry">
            <mxPoint x="4676.5" y="6925" as="targetPoint" />
            <Array as="points">
              <mxPoint x="5016.5" y="4665" />
              <mxPoint x="5016.5" y="6425" />
              <mxPoint x="4649.5" y="6425" />
            </Array>
          </mxGeometry>
        </mxCell>
        <mxCell id="PSCNETZQlT987C8pUvB9-60" value="strcmp(resposta, &quot;SIM&quot;) == 0" style="strokeWidth=2;html=1;shape=mxgraph.flowchart.decision;whiteSpace=wrap;" vertex="1" parent="1">
          <mxGeometry x="4610" y="4620" width="123" height="100" as="geometry" />
        </mxCell>
        <mxCell id="PSCNETZQlT987C8pUvB9-61" style="edgeStyle=orthogonalEdgeStyle;rounded=0;orthogonalLoop=1;jettySize=auto;html=1;" edge="1" source="PSCNETZQlT987C8pUvB9-63" target="PSCNETZQlT987C8pUvB9-71" parent="1">
          <mxGeometry relative="1" as="geometry">
            <mxPoint x="4674.5" y="5211.97" as="targetPoint" />
          </mxGeometry>
        </mxCell>
        <mxCell id="PSCNETZQlT987C8pUvB9-62" style="edgeStyle=orthogonalEdgeStyle;rounded=0;orthogonalLoop=1;jettySize=auto;html=1;entryX=0.5;entryY=0;entryDx=0;entryDy=0;entryPerimeter=0;" edge="1" source="PSCNETZQlT987C8pUvB9-63" target="PSCNETZQlT987C8pUvB9-82" parent="1">
          <mxGeometry relative="1" as="geometry">
            <mxPoint x="4636.5" y="5695" as="targetPoint" />
            <Array as="points">
              <mxPoint x="4938.5" y="5089" />
              <mxPoint x="4938.5" y="5602" />
              <mxPoint x="4673.5" y="5602" />
              <mxPoint x="4673.5" y="5635" />
            </Array>
          </mxGeometry>
        </mxCell>
        <mxCell id="PSCNETZQlT987C8pUvB9-63" value="" style="strokeWidth=2;html=1;shape=mxgraph.flowchart.decision;whiteSpace=wrap;" vertex="1" parent="1">
          <mxGeometry x="4604.5" y="5035.97" width="140" height="106" as="geometry" />
        </mxCell>
        <mxCell id="PSCNETZQlT987C8pUvB9-64" style="edgeStyle=orthogonalEdgeStyle;rounded=0;orthogonalLoop=1;jettySize=auto;html=1;" edge="1" source="PSCNETZQlT987C8pUvB9-65" target="PSCNETZQlT987C8pUvB9-60" parent="1">
          <mxGeometry relative="1" as="geometry">
            <Array as="points">
              <mxPoint x="4671.5" y="4565" />
              <mxPoint x="4671.5" y="4565" />
            </Array>
          </mxGeometry>
        </mxCell>
        <mxCell id="PSCNETZQlT987C8pUvB9-65" value="strcpy(resposta, &quot;SIM&quot;);" style="rounded=1;whiteSpace=wrap;html=1;absoluteArcSize=1;arcSize=14;strokeWidth=2;" vertex="1" parent="1">
          <mxGeometry x="4623" y="4555" width="100" height="50" as="geometry" />
        </mxCell>
        <mxCell id="PSCNETZQlT987C8pUvB9-66" value="i&amp;lt;=&lt;br&gt;quantidadeCadastro &amp;amp;&amp;amp; acha == false" style="text;html=1;strokeColor=none;fillColor=none;align=center;verticalAlign=middle;whiteSpace=wrap;rounded=0;" vertex="1" parent="1">
          <mxGeometry x="4631.5" y="5071.97" width="83" height="30" as="geometry" />
        </mxCell>
        <mxCell id="PSCNETZQlT987C8pUvB9-67" style="edgeStyle=orthogonalEdgeStyle;rounded=0;orthogonalLoop=1;jettySize=auto;html=1;entryX=0.448;entryY=0.248;entryDx=0;entryDy=0;entryPerimeter=0;" edge="1" target="PSCNETZQlT987C8pUvB9-54" parent="1">
          <mxGeometry relative="1" as="geometry">
            <mxPoint x="4669.5" y="4773" as="targetPoint" />
            <mxPoint x="4669.521739130435" y="4719" as="sourcePoint" />
          </mxGeometry>
        </mxCell>
        <mxCell id="PSCNETZQlT987C8pUvB9-68" value="Sim" style="text;html=1;strokeColor=none;fillColor=none;align=center;verticalAlign=middle;whiteSpace=wrap;rounded=0;" vertex="1" parent="1">
          <mxGeometry x="4684.5" y="5151.97" width="60" height="30" as="geometry" />
        </mxCell>
        <mxCell id="PSCNETZQlT987C8pUvB9-69" style="edgeStyle=orthogonalEdgeStyle;rounded=0;orthogonalLoop=1;jettySize=auto;html=1;" edge="1" source="PSCNETZQlT987C8pUvB9-71" parent="1">
          <mxGeometry relative="1" as="geometry">
            <mxPoint x="4508" y="5371.97" as="targetPoint" />
          </mxGeometry>
        </mxCell>
        <mxCell id="PSCNETZQlT987C8pUvB9-70" style="edgeStyle=orthogonalEdgeStyle;rounded=0;orthogonalLoop=1;jettySize=auto;html=1;" edge="1" source="PSCNETZQlT987C8pUvB9-71" target="PSCNETZQlT987C8pUvB9-76" parent="1">
          <mxGeometry relative="1" as="geometry">
            <mxPoint x="4858" y="5401.97" as="targetPoint" />
            <Array as="points">
              <mxPoint x="4859" y="5304.97" />
            </Array>
          </mxGeometry>
        </mxCell>
        <mxCell id="PSCNETZQlT987C8pUvB9-71" value="strcmp(nomePesquisa, alunoCadastro[i].nome) == 0;" style="strokeWidth=2;html=1;shape=mxgraph.flowchart.decision;whiteSpace=wrap;" vertex="1" parent="1">
          <mxGeometry x="4573" y="5251.97" width="203" height="106" as="geometry" />
        </mxCell>
        <mxCell id="PSCNETZQlT987C8pUvB9-72" value="Sim" style="text;html=1;strokeColor=none;fillColor=none;align=center;verticalAlign=middle;whiteSpace=wrap;rounded=0;" vertex="1" parent="1">
          <mxGeometry x="4508" y="5271.97" width="60" height="30" as="geometry" />
        </mxCell>
        <mxCell id="PSCNETZQlT987C8pUvB9-73" style="edgeStyle=orthogonalEdgeStyle;rounded=0;orthogonalLoop=1;jettySize=auto;html=1;entryX=0;entryY=0.5;entryDx=0;entryDy=0;entryPerimeter=0;" edge="1" source="PSCNETZQlT987C8pUvB9-74" target="PSCNETZQlT987C8pUvB9-78" parent="1">
          <mxGeometry relative="1" as="geometry">
            <Array as="points">
              <mxPoint x="4508" y="5486.97" />
            </Array>
          </mxGeometry>
        </mxCell>
        <mxCell id="PSCNETZQlT987C8pUvB9-74" value="acha = true;" style="rounded=1;whiteSpace=wrap;html=1;absoluteArcSize=1;arcSize=14;strokeWidth=2;" vertex="1" parent="1">
          <mxGeometry x="4458" y="5371.97" width="100" height="50" as="geometry" />
        </mxCell>
        <mxCell id="PSCNETZQlT987C8pUvB9-75" style="edgeStyle=orthogonalEdgeStyle;rounded=0;orthogonalLoop=1;jettySize=auto;html=1;" edge="1" source="PSCNETZQlT987C8pUvB9-76" target="PSCNETZQlT987C8pUvB9-78" parent="1">
          <mxGeometry relative="1" as="geometry">
            <mxPoint x="4708" y="5481.97" as="targetPoint" />
            <Array as="points">
              <mxPoint x="4858" y="5486.97" />
            </Array>
          </mxGeometry>
        </mxCell>
        <mxCell id="PSCNETZQlT987C8pUvB9-76" value="i++;" style="rounded=1;whiteSpace=wrap;html=1;absoluteArcSize=1;arcSize=14;strokeWidth=2;" vertex="1" parent="1">
          <mxGeometry x="4808" y="5371.97" width="100" height="50" as="geometry" />
        </mxCell>
        <mxCell id="PSCNETZQlT987C8pUvB9-77" style="edgeStyle=orthogonalEdgeStyle;rounded=0;orthogonalLoop=1;jettySize=auto;html=1;entryX=0;entryY=0.5;entryDx=0;entryDy=0;entryPerimeter=0;" edge="1" source="PSCNETZQlT987C8pUvB9-78" target="PSCNETZQlT987C8pUvB9-63" parent="1">
          <mxGeometry relative="1" as="geometry">
            <Array as="points">
              <mxPoint x="4675" y="5561.97" />
              <mxPoint x="4418" y="5561.97" />
              <mxPoint x="4418" y="5088.97" />
            </Array>
          </mxGeometry>
        </mxCell>
        <mxCell id="PSCNETZQlT987C8pUvB9-78" value="" style="strokeWidth=2;html=1;shape=mxgraph.flowchart.start_2;whiteSpace=wrap;" vertex="1" parent="1">
          <mxGeometry x="4659.5" y="5471.97" width="30" height="30" as="geometry" />
        </mxCell>
        <mxCell id="PSCNETZQlT987C8pUvB9-79" value="NÃ£o" style="text;html=1;strokeColor=none;fillColor=none;align=center;verticalAlign=middle;whiteSpace=wrap;rounded=0;" vertex="1" parent="1">
          <mxGeometry x="4799.5" y="5281.97" width="60" height="30" as="geometry" />
        </mxCell>
        <mxCell id="PSCNETZQlT987C8pUvB9-80" style="edgeStyle=orthogonalEdgeStyle;rounded=0;orthogonalLoop=1;jettySize=auto;html=1;" edge="1" source="PSCNETZQlT987C8pUvB9-82" target="PSCNETZQlT987C8pUvB9-85" parent="1">
          <mxGeometry relative="1" as="geometry">
            <mxPoint x="4518" y="5785.97" as="targetPoint" />
            <Array as="points">
              <mxPoint x="4578" y="5709.97" />
            </Array>
          </mxGeometry>
        </mxCell>
        <mxCell id="PSCNETZQlT987C8pUvB9-81" style="edgeStyle=orthogonalEdgeStyle;rounded=0;orthogonalLoop=1;jettySize=auto;html=1;" edge="1" source="PSCNETZQlT987C8pUvB9-82" target="PSCNETZQlT987C8pUvB9-93" parent="1">
          <mxGeometry relative="1" as="geometry">
            <mxPoint x="4778" y="5785.97" as="targetPoint" />
            <Array as="points">
              <mxPoint x="4778" y="5709.97" />
            </Array>
          </mxGeometry>
        </mxCell>
        <mxCell id="PSCNETZQlT987C8pUvB9-82" value="acha == true" style="strokeWidth=2;html=1;shape=mxgraph.flowchart.decision;whiteSpace=wrap;" vertex="1" parent="1">
          <mxGeometry x="4624.5" y="5659.97" width="100" height="100" as="geometry" />
        </mxCell>
        <mxCell id="PSCNETZQlT987C8pUvB9-83" value="Sim" style="text;html=1;strokeColor=none;fillColor=none;align=center;verticalAlign=middle;whiteSpace=wrap;rounded=0;" vertex="1" parent="1">
          <mxGeometry x="4571.5" y="5685.97" width="60" height="30" as="geometry" />
        </mxCell>
        <mxCell id="PSCNETZQlT987C8pUvB9-84" style="edgeStyle=orthogonalEdgeStyle;rounded=0;orthogonalLoop=1;jettySize=auto;html=1;entryX=0.5;entryY=0;entryDx=0;entryDy=0;" edge="1" source="PSCNETZQlT987C8pUvB9-85" target="PSCNETZQlT987C8pUvB9-88" parent="1">
          <mxGeometry relative="1" as="geometry" />
        </mxCell>
        <mxCell id="PSCNETZQlT987C8pUvB9-85" value="alunoCadastro[i].nome" style="strokeWidth=2;html=1;shape=mxgraph.flowchart.display;whiteSpace=wrap;" vertex="1" parent="1">
          <mxGeometry x="4505" y="5790.97" width="146" height="60" as="geometry" />
        </mxCell>
        <mxCell id="PSCNETZQlT987C8pUvB9-86" style="edgeStyle=orthogonalEdgeStyle;rounded=0;orthogonalLoop=1;jettySize=auto;html=1;" edge="1" source="PSCNETZQlT987C8pUvB9-88" parent="1">
          <mxGeometry relative="1" as="geometry">
            <mxPoint x="4578" y="5980.97" as="targetPoint" />
          </mxGeometry>
        </mxCell>
        <mxCell id="PSCNETZQlT987C8pUvB9-203" style="edgeStyle=orthogonalEdgeStyle;rounded=0;orthogonalLoop=1;jettySize=auto;html=1;" edge="1" parent="1" source="PSCNETZQlT987C8pUvB9-88" target="PSCNETZQlT987C8pUvB9-201">
          <mxGeometry relative="1" as="geometry">
            <Array as="points">
              <mxPoint x="4690" y="5920.97" />
              <mxPoint x="4690" y="6164.999999999999" />
            </Array>
          </mxGeometry>
        </mxCell>
        <mxCell id="PSCNETZQlT987C8pUvB9-88" value="" style="verticalLabelPosition=bottom;verticalAlign=top;html=1;shape=hexagon;perimeter=hexagonPerimeter2;arcSize=6;size=0.27;" vertex="1" parent="1">
          <mxGeometry x="4508" y="5890.97" width="140" height="60" as="geometry" />
        </mxCell>
        <mxCell id="PSCNETZQlT987C8pUvB9-89" value="&amp;nbsp;i=0 ; i&amp;lt;4; i++" style="text;html=1;strokeColor=none;fillColor=none;align=center;verticalAlign=middle;whiteSpace=wrap;rounded=0;" vertex="1" parent="1">
          <mxGeometry x="4528" y="5905.97" width="110" height="30" as="geometry" />
        </mxCell>
        <mxCell id="PSCNETZQlT987C8pUvB9-90" style="edgeStyle=orthogonalEdgeStyle;rounded=0;orthogonalLoop=1;jettySize=auto;html=1;entryX=0;entryY=0.5;entryDx=0;entryDy=0;" edge="1" target="PSCNETZQlT987C8pUvB9-88" parent="1">
          <mxGeometry relative="1" as="geometry">
            <Array as="points">
              <mxPoint x="4578" y="6090.97" />
              <mxPoint x="4458" y="6090.97" />
              <mxPoint x="4458" y="5920.97" />
            </Array>
            <mxPoint x="4578" y="6040.97" as="sourcePoint" />
          </mxGeometry>
        </mxCell>
        <mxCell id="PSCNETZQlT987C8pUvB9-91" value="alunoCadastro[i].notas" style="strokeWidth=2;html=1;shape=mxgraph.flowchart.display;whiteSpace=wrap;" vertex="1" parent="1">
          <mxGeometry x="4497" y="5980.97" width="146" height="60" as="geometry" />
        </mxCell>
        <mxCell id="PSCNETZQlT987C8pUvB9-206" style="edgeStyle=orthogonalEdgeStyle;rounded=0;orthogonalLoop=1;jettySize=auto;html=1;entryX=1;entryY=0.5;entryDx=0;entryDy=0;entryPerimeter=0;" edge="1" parent="1" source="PSCNETZQlT987C8pUvB9-93" target="PSCNETZQlT987C8pUvB9-96">
          <mxGeometry relative="1" as="geometry">
            <Array as="points">
              <mxPoint x="4780" y="6225" />
            </Array>
          </mxGeometry>
        </mxCell>
        <mxCell id="PSCNETZQlT987C8pUvB9-93" value="&quot;NÃ£o existe&quot;" style="strokeWidth=2;html=1;shape=mxgraph.flowchart.display;whiteSpace=wrap;" vertex="1" parent="1">
          <mxGeometry x="4724.5" y="5790.97" width="100" height="60" as="geometry" />
        </mxCell>
        <mxCell id="PSCNETZQlT987C8pUvB9-94" value="NÃ£o" style="text;html=1;strokeColor=none;fillColor=none;align=center;verticalAlign=middle;whiteSpace=wrap;rounded=0;" vertex="1" parent="1">
          <mxGeometry x="4724.5" y="5685.97" width="60" height="30" as="geometry" />
        </mxCell>
        <mxCell id="PSCNETZQlT987C8pUvB9-95" style="edgeStyle=orthogonalEdgeStyle;rounded=0;orthogonalLoop=1;jettySize=auto;html=1;" edge="1" source="PSCNETZQlT987C8pUvB9-96" target="PSCNETZQlT987C8pUvB9-98" parent="1">
          <mxGeometry relative="1" as="geometry" />
        </mxCell>
        <mxCell id="PSCNETZQlT987C8pUvB9-96" value="" style="strokeWidth=2;html=1;shape=mxgraph.flowchart.start_2;whiteSpace=wrap;" vertex="1" parent="1">
          <mxGeometry x="4666.5" y="6210" width="30" height="30" as="geometry" />
        </mxCell>
        <mxCell id="PSCNETZQlT987C8pUvB9-97" style="edgeStyle=orthogonalEdgeStyle;rounded=0;orthogonalLoop=1;jettySize=auto;html=1;entryX=0;entryY=0.5;entryDx=0;entryDy=0;entryPerimeter=0;" edge="1" source="PSCNETZQlT987C8pUvB9-98" target="PSCNETZQlT987C8pUvB9-60" parent="1">
          <mxGeometry relative="1" as="geometry">
            <mxPoint x="4679.5" y="6359.97" as="targetPoint" />
            <Array as="points">
              <mxPoint x="4679.5" y="6385" />
              <mxPoint x="4366.5" y="6385" />
              <mxPoint x="4366.5" y="4670" />
            </Array>
          </mxGeometry>
        </mxCell>
        <mxCell id="PSCNETZQlT987C8pUvB9-98" value="resposta" style="html=1;strokeWidth=2;shape=manualInput;whiteSpace=wrap;rounded=1;size=26;arcSize=11;" vertex="1" parent="1">
          <mxGeometry x="4631.5" y="6290" width="100" height="60" as="geometry" />
        </mxCell>
        <mxCell id="PSCNETZQlT987C8pUvB9-99" style="edgeStyle=orthogonalEdgeStyle;rounded=0;orthogonalLoop=1;jettySize=auto;html=1;" edge="1" source="PSCNETZQlT987C8pUvB9-101" parent="1">
          <mxGeometry relative="1" as="geometry">
            <mxPoint x="3980" y="4717.03" as="targetPoint" />
          </mxGeometry>
        </mxCell>
        <mxCell id="PSCNETZQlT987C8pUvB9-100" style="edgeStyle=orthogonalEdgeStyle;rounded=0;orthogonalLoop=1;jettySize=auto;html=1;" edge="1" source="PSCNETZQlT987C8pUvB9-101" target="PSCNETZQlT987C8pUvB9-130" parent="1">
          <mxGeometry relative="1" as="geometry">
            <Array as="points">
              <mxPoint x="4170" y="4657" />
              <mxPoint x="4170" y="5090" />
              <mxPoint x="3980" y="5090" />
            </Array>
          </mxGeometry>
        </mxCell>
        <mxCell id="PSCNETZQlT987C8pUvB9-101" value="" style="verticalLabelPosition=bottom;verticalAlign=top;html=1;shape=hexagon;perimeter=hexagonPerimeter2;arcSize=6;size=0.27;" vertex="1" parent="1">
          <mxGeometry x="3910" y="4627.03" width="140" height="60" as="geometry" />
        </mxCell>
        <mxCell id="PSCNETZQlT987C8pUvB9-102" value="&amp;nbsp;i=0 ; i&amp;lt;quantidadeCadastro ; i++" style="text;html=1;strokeColor=none;fillColor=none;align=center;verticalAlign=middle;whiteSpace=wrap;rounded=0;" vertex="1" parent="1">
          <mxGeometry x="3950" y="4642.03" width="60" height="30" as="geometry" />
        </mxCell>
        <mxCell id="PSCNETZQlT987C8pUvB9-103" style="edgeStyle=orthogonalEdgeStyle;rounded=0;orthogonalLoop=1;jettySize=auto;html=1;entryX=0.5;entryY=0;entryDx=0;entryDy=0;" edge="1" target="PSCNETZQlT987C8pUvB9-106" parent="1">
          <mxGeometry relative="1" as="geometry">
            <mxPoint x="3980" y="4777.03" as="sourcePoint" />
          </mxGeometry>
        </mxCell>
        <mxCell id="PSCNETZQlT987C8pUvB9-104" style="edgeStyle=orthogonalEdgeStyle;rounded=0;orthogonalLoop=1;jettySize=auto;html=1;" edge="1" source="PSCNETZQlT987C8pUvB9-106" parent="1">
          <mxGeometry relative="1" as="geometry">
            <mxPoint x="3980" y="4917.03" as="targetPoint" />
          </mxGeometry>
        </mxCell>
        <mxCell id="PSCNETZQlT987C8pUvB9-105" style="edgeStyle=orthogonalEdgeStyle;rounded=0;orthogonalLoop=1;jettySize=auto;html=1;entryX=0;entryY=0.5;entryDx=0;entryDy=0;" edge="1" source="PSCNETZQlT987C8pUvB9-106" target="PSCNETZQlT987C8pUvB9-101" parent="1">
          <mxGeometry relative="1" as="geometry">
            <Array as="points">
              <mxPoint x="4100" y="4857.03" />
              <mxPoint x="4100" y="5067.03" />
              <mxPoint x="3820" y="5067.03" />
              <mxPoint x="3820" y="4657.03" />
            </Array>
          </mxGeometry>
        </mxCell>
        <mxCell id="PSCNETZQlT987C8pUvB9-106" value="" style="verticalLabelPosition=bottom;verticalAlign=top;html=1;shape=hexagon;perimeter=hexagonPerimeter2;arcSize=6;size=0.27;" vertex="1" parent="1">
          <mxGeometry x="3910" y="4827.03" width="140" height="60" as="geometry" />
        </mxCell>
        <mxCell id="PSCNETZQlT987C8pUvB9-107" value="&amp;nbsp;i=0 ; i&amp;lt;4; i++" style="text;html=1;strokeColor=none;fillColor=none;align=center;verticalAlign=middle;whiteSpace=wrap;rounded=0;" vertex="1" parent="1">
          <mxGeometry x="3930" y="4842.03" width="110" height="30" as="geometry" />
        </mxCell>
        <mxCell id="PSCNETZQlT987C8pUvB9-108" style="edgeStyle=orthogonalEdgeStyle;rounded=0;orthogonalLoop=1;jettySize=auto;html=1;entryX=0;entryY=0.5;entryDx=0;entryDy=0;" edge="1" target="PSCNETZQlT987C8pUvB9-106" parent="1">
          <mxGeometry relative="1" as="geometry">
            <Array as="points">
              <mxPoint x="3980" y="5027.03" />
              <mxPoint x="3860" y="5027.03" />
              <mxPoint x="3860" y="4857.03" />
            </Array>
            <mxPoint x="3980" y="4977.03" as="sourcePoint" />
          </mxGeometry>
        </mxCell>
        <mxCell id="PSCNETZQlT987C8pUvB9-109" value="alunoCadastro[i].nome" style="strokeWidth=2;html=1;shape=mxgraph.flowchart.display;whiteSpace=wrap;" vertex="1" parent="1">
          <mxGeometry x="3899" y="4717.03" width="146" height="60" as="geometry" />
        </mxCell>
        <mxCell id="PSCNETZQlT987C8pUvB9-110" value="alunoCadastro[i].notas" style="strokeWidth=2;html=1;shape=mxgraph.flowchart.display;whiteSpace=wrap;" vertex="1" parent="1">
          <mxGeometry x="3899" y="4917.03" width="146" height="60" as="geometry" />
        </mxCell>
        <mxCell id="PSCNETZQlT987C8pUvB9-112" style="edgeStyle=orthogonalEdgeStyle;rounded=0;orthogonalLoop=1;jettySize=auto;html=1;entryX=0.5;entryY=0;entryDx=0;entryDy=0;entryPerimeter=0;" edge="1" source="PSCNETZQlT987C8pUvB9-113" target="PSCNETZQlT987C8pUvB9-121" parent="1">
          <mxGeometry relative="1" as="geometry" />
        </mxCell>
        <mxCell id="PSCNETZQlT987C8pUvB9-113" value="case opcaoEscolhida==0" style="strokeWidth=2;html=1;shape=mxgraph.flowchart.decision;whiteSpace=wrap;" vertex="1" parent="1">
          <mxGeometry x="3395" y="4160" width="130" height="100" as="geometry" />
        </mxCell>
        <mxCell id="PSCNETZQlT987C8pUvB9-114" value="Sim" style="text;html=1;strokeColor=none;fillColor=none;align=center;verticalAlign=middle;whiteSpace=wrap;rounded=0;" vertex="1" parent="1">
          <mxGeometry x="3550" y="4180" width="60" height="30" as="geometry" />
        </mxCell>
        <mxCell id="PSCNETZQlT987C8pUvB9-115" style="edgeStyle=orthogonalEdgeStyle;rounded=0;orthogonalLoop=1;jettySize=auto;html=1;" edge="1" source="PSCNETZQlT987C8pUvB9-116" target="PSCNETZQlT987C8pUvB9-150" parent="1">
          <mxGeometry relative="1" as="geometry">
            <mxPoint x="5465" y="6750.06" as="targetPoint" />
            <Array as="points">
              <mxPoint x="5527" y="6695" />
            </Array>
            <mxPoint x="5360" y="6600" as="sourcePoint" />
          </mxGeometry>
        </mxCell>
        <mxCell id="PSCNETZQlT987C8pUvB9-116" value="break;" style="rounded=1;whiteSpace=wrap;html=1;absoluteArcSize=1;arcSize=14;strokeWidth=2;" vertex="1" parent="1">
          <mxGeometry x="5480.010000000001" y="6348.029999999999" width="100" height="50" as="geometry" />
        </mxCell>
        <mxCell id="PSCNETZQlT987C8pUvB9-117" style="edgeStyle=orthogonalEdgeStyle;rounded=0;orthogonalLoop=1;jettySize=auto;html=1;" edge="1" source="PSCNETZQlT987C8pUvB9-118" target="PSCNETZQlT987C8pUvB9-7" parent="1">
          <mxGeometry relative="1" as="geometry" />
        </mxCell>
        <mxCell id="PSCNETZQlT987C8pUvB9-118" value="&lt;div style=&quot;border-color: var(--border-color);&quot;&gt;Escolha uma opÃ§Ã£o:&lt;/div&gt;&lt;div style=&quot;border-color: var(--border-color);&quot;&gt;&lt;br style=&quot;border-color: var(--border-color);&quot;&gt;&lt;/div&gt;&lt;div style=&quot;border-color: var(--border-color);&quot;&gt;[0] Cadastrar 20 alunos&lt;/div&gt;&lt;div style=&quot;border-color: var(--border-color);&quot;&gt;[1] Pesquisar alunos&lt;/div&gt;&lt;div style=&quot;border-color: var(--border-color);&quot;&gt;[2] Apresentar todos os registros&lt;/div&gt;&lt;div style=&quot;border-color: var(--border-color);&quot;&gt;[3] Sair do programa&lt;/div&gt;&lt;div style=&quot;border-color: var(--border-color);&quot;&gt;&lt;br style=&quot;border-color: var(--border-color);&quot;&gt;&lt;/div&gt;" style="strokeWidth=2;html=1;shape=mxgraph.flowchart.display;whiteSpace=wrap;" vertex="1" parent="1">
          <mxGeometry x="3350" y="3842" width="220" height="120" as="geometry" />
        </mxCell>
        <mxCell id="PSCNETZQlT987C8pUvB9-119" style="edgeStyle=orthogonalEdgeStyle;rounded=0;orthogonalLoop=1;jettySize=auto;html=1;entryX=0.5;entryY=0;entryDx=0;entryDy=0;entryPerimeter=0;" edge="1" source="PSCNETZQlT987C8pUvB9-121" target="PSCNETZQlT987C8pUvB9-160" parent="1">
          <mxGeometry relative="1" as="geometry">
            <mxPoint x="3590" y="4380" as="targetPoint" />
            <Array as="points">
              <mxPoint x="4674" y="4370" />
            </Array>
          </mxGeometry>
        </mxCell>
        <mxCell id="PSCNETZQlT987C8pUvB9-120" style="edgeStyle=orthogonalEdgeStyle;rounded=0;orthogonalLoop=1;jettySize=auto;html=1;entryX=0.5;entryY=0;entryDx=0;entryDy=0;entryPerimeter=0;" edge="1" source="PSCNETZQlT987C8pUvB9-121" target="PSCNETZQlT987C8pUvB9-127" parent="1">
          <mxGeometry relative="1" as="geometry">
            <mxPoint x="3460" y="4470" as="targetPoint" />
          </mxGeometry>
        </mxCell>
        <mxCell id="PSCNETZQlT987C8pUvB9-121" value="case opcaoEscolhida==1" style="strokeWidth=2;html=1;shape=mxgraph.flowchart.decision;whiteSpace=wrap;" vertex="1" parent="1">
          <mxGeometry x="3395" y="4320" width="130" height="100" as="geometry" />
        </mxCell>
        <mxCell id="PSCNETZQlT987C8pUvB9-122" value="Sim" style="text;html=1;strokeColor=none;fillColor=none;align=center;verticalAlign=middle;whiteSpace=wrap;rounded=0;" vertex="1" parent="1">
          <mxGeometry x="3550" y="4340" width="60" height="30" as="geometry" />
        </mxCell>
        <mxCell id="PSCNETZQlT987C8pUvB9-123" style="edgeStyle=orthogonalEdgeStyle;rounded=0;orthogonalLoop=1;jettySize=auto;html=1;entryX=0.559;entryY=-0.029;entryDx=0;entryDy=0;entryPerimeter=0;" edge="1" source="PSCNETZQlT987C8pUvB9-124" target="PSCNETZQlT987C8pUvB9-170" parent="1">
          <mxGeometry relative="1" as="geometry" />
        </mxCell>
        <mxCell id="PSCNETZQlT987C8pUvB9-124" value="break;" style="rounded=1;whiteSpace=wrap;html=1;absoluteArcSize=1;arcSize=14;strokeWidth=2;" vertex="1" parent="1">
          <mxGeometry x="4596.5" y="6475" width="100" height="50" as="geometry" />
        </mxCell>
        <mxCell id="PSCNETZQlT987C8pUvB9-125" style="edgeStyle=orthogonalEdgeStyle;rounded=0;orthogonalLoop=1;jettySize=auto;html=1;" edge="1" source="PSCNETZQlT987C8pUvB9-127" target="PSCNETZQlT987C8pUvB9-135" parent="1">
          <mxGeometry relative="1" as="geometry" />
        </mxCell>
        <mxCell id="PSCNETZQlT987C8pUvB9-126" style="edgeStyle=orthogonalEdgeStyle;rounded=0;orthogonalLoop=1;jettySize=auto;html=1;entryX=0;entryY=0.5;entryDx=0;entryDy=0;entryPerimeter=0;" edge="1" source="PSCNETZQlT987C8pUvB9-127" target="PSCNETZQlT987C8pUvB9-173" parent="1">
          <mxGeometry relative="1" as="geometry" />
        </mxCell>
        <mxCell id="PSCNETZQlT987C8pUvB9-127" value="case opcaoEscolhida==2" style="strokeWidth=2;html=1;shape=mxgraph.flowchart.decision;whiteSpace=wrap;" vertex="1" parent="1">
          <mxGeometry x="3395" y="4475" width="130" height="100" as="geometry" />
        </mxCell>
        <mxCell id="PSCNETZQlT987C8pUvB9-128" value="Sim" style="text;html=1;strokeColor=none;fillColor=none;align=center;verticalAlign=middle;whiteSpace=wrap;rounded=0;" vertex="1" parent="1">
          <mxGeometry x="3550" y="4495" width="60" height="30" as="geometry" />
        </mxCell>
        <mxCell id="PSCNETZQlT987C8pUvB9-129" style="edgeStyle=orthogonalEdgeStyle;rounded=0;orthogonalLoop=1;jettySize=auto;html=1;" edge="1" source="PSCNETZQlT987C8pUvB9-130" target="PSCNETZQlT987C8pUvB9-179" parent="1">
          <mxGeometry relative="1" as="geometry" />
        </mxCell>
        <mxCell id="PSCNETZQlT987C8pUvB9-130" value="break;" style="rounded=1;whiteSpace=wrap;html=1;absoluteArcSize=1;arcSize=14;strokeWidth=2;" vertex="1" parent="1">
          <mxGeometry x="3930" y="5122.03" width="100" height="55" as="geometry" />
        </mxCell>
        <mxCell id="PSCNETZQlT987C8pUvB9-131" value="NÃ£o" style="text;html=1;strokeColor=none;fillColor=none;align=center;verticalAlign=middle;whiteSpace=wrap;rounded=0;" vertex="1" parent="1">
          <mxGeometry x="3395" y="4260" width="60" height="30" as="geometry" />
        </mxCell>
        <mxCell id="PSCNETZQlT987C8pUvB9-132" value="NÃ£o" style="text;html=1;strokeColor=none;fillColor=none;align=center;verticalAlign=middle;whiteSpace=wrap;rounded=0;" vertex="1" parent="1">
          <mxGeometry x="3395" y="4420" width="60" height="30" as="geometry" />
        </mxCell>
        <mxCell id="PSCNETZQlT987C8pUvB9-133" style="edgeStyle=orthogonalEdgeStyle;rounded=0;orthogonalLoop=1;jettySize=auto;html=1;" edge="1" source="PSCNETZQlT987C8pUvB9-135" target="PSCNETZQlT987C8pUvB9-142" parent="1">
          <mxGeometry relative="1" as="geometry">
            <mxPoint x="3460" y="4820" as="targetPoint" />
          </mxGeometry>
        </mxCell>
        <mxCell id="PSCNETZQlT987C8pUvB9-134" style="edgeStyle=orthogonalEdgeStyle;rounded=0;orthogonalLoop=1;jettySize=auto;html=1;" edge="1" source="PSCNETZQlT987C8pUvB9-135" target="PSCNETZQlT987C8pUvB9-155" parent="1">
          <mxGeometry relative="1" as="geometry">
            <mxPoint x="3730" y="4770" as="targetPoint" />
            <Array as="points">
              <mxPoint x="3720" y="4681" />
            </Array>
          </mxGeometry>
        </mxCell>
        <mxCell id="PSCNETZQlT987C8pUvB9-135" value="case opcaoEscolhida==3" style="strokeWidth=2;html=1;shape=mxgraph.flowchart.decision;whiteSpace=wrap;" vertex="1" parent="1">
          <mxGeometry x="3395" y="4631" width="130" height="100" as="geometry" />
        </mxCell>
        <mxCell id="PSCNETZQlT987C8pUvB9-136" value="NÃ£o" style="text;html=1;strokeColor=none;fillColor=none;align=center;verticalAlign=middle;whiteSpace=wrap;rounded=0;" vertex="1" parent="1">
          <mxGeometry x="3390" y="4746" width="60" height="30" as="geometry" />
        </mxCell>
        <mxCell id="PSCNETZQlT987C8pUvB9-137" value="NÃ£o" style="text;html=1;strokeColor=none;fillColor=none;align=center;verticalAlign=middle;whiteSpace=wrap;rounded=0;" vertex="1" parent="1">
          <mxGeometry x="3390" y="4580" width="60" height="30" as="geometry" />
        </mxCell>
        <mxCell id="PSCNETZQlT987C8pUvB9-138" value="Sim" style="text;html=1;strokeColor=none;fillColor=none;align=center;verticalAlign=middle;whiteSpace=wrap;rounded=0;" vertex="1" parent="1">
          <mxGeometry x="3540" y="4650" width="60" height="30" as="geometry" />
        </mxCell>
        <mxCell id="PSCNETZQlT987C8pUvB9-139" style="edgeStyle=orthogonalEdgeStyle;rounded=0;orthogonalLoop=1;jettySize=auto;html=1;" edge="1" source="PSCNETZQlT987C8pUvB9-140" target="PSCNETZQlT987C8pUvB9-152" parent="1">
          <mxGeometry relative="1" as="geometry">
            <mxPoint x="3740" y="5270" as="targetPoint" />
          </mxGeometry>
        </mxCell>
        <mxCell id="PSCNETZQlT987C8pUvB9-140" value="break;" style="rounded=1;whiteSpace=wrap;html=1;absoluteArcSize=1;arcSize=14;strokeWidth=2;" vertex="1" parent="1">
          <mxGeometry x="3670" y="4834.97" width="100" height="50" as="geometry" />
        </mxCell>
        <mxCell id="PSCNETZQlT987C8pUvB9-141" style="edgeStyle=orthogonalEdgeStyle;rounded=0;orthogonalLoop=1;jettySize=auto;html=1;" edge="1" source="PSCNETZQlT987C8pUvB9-142" target="PSCNETZQlT987C8pUvB9-145" parent="1">
          <mxGeometry relative="1" as="geometry">
            <mxPoint x="3610" y="4940" as="targetPoint" />
          </mxGeometry>
        </mxCell>
        <mxCell id="PSCNETZQlT987C8pUvB9-142" value="default" style="strokeWidth=2;html=1;shape=mxgraph.flowchart.decision;whiteSpace=wrap;" vertex="1" parent="1">
          <mxGeometry x="3395" y="4825" width="130" height="100" as="geometry" />
        </mxCell>
        <mxCell id="PSCNETZQlT987C8pUvB9-143" value="Sim" style="text;html=1;strokeColor=none;fillColor=none;align=center;verticalAlign=middle;whiteSpace=wrap;rounded=0;" vertex="1" parent="1">
          <mxGeometry x="3528" y="4850" width="60" height="30" as="geometry" />
        </mxCell>
        <mxCell id="PSCNETZQlT987C8pUvB9-144" style="edgeStyle=orthogonalEdgeStyle;rounded=0;orthogonalLoop=1;jettySize=auto;html=1;" edge="1" source="PSCNETZQlT987C8pUvB9-145" target="PSCNETZQlT987C8pUvB9-147" parent="1">
          <mxGeometry relative="1" as="geometry">
            <mxPoint x="3600" y="5040" as="targetPoint" />
          </mxGeometry>
        </mxCell>
        <mxCell id="PSCNETZQlT987C8pUvB9-145" value="&quot;Escolha um opÃ§Ã£o vÃ¡lida&quot;" style="strokeWidth=2;html=1;shape=mxgraph.flowchart.display;whiteSpace=wrap;" vertex="1" parent="1">
          <mxGeometry x="3550" y="4935" width="100" height="60" as="geometry" />
        </mxCell>
        <mxCell id="PSCNETZQlT987C8pUvB9-146" style="edgeStyle=orthogonalEdgeStyle;rounded=0;orthogonalLoop=1;jettySize=auto;html=1;entryX=0;entryY=0.5;entryDx=0;entryDy=0;entryPerimeter=0;" edge="1" source="PSCNETZQlT987C8pUvB9-147" target="PSCNETZQlT987C8pUvB9-152" parent="1">
          <mxGeometry relative="1" as="geometry">
            <Array as="points">
              <mxPoint x="3600" y="5225" />
            </Array>
          </mxGeometry>
        </mxCell>
        <mxCell id="PSCNETZQlT987C8pUvB9-147" value="break;" style="rounded=1;whiteSpace=wrap;html=1;absoluteArcSize=1;arcSize=14;strokeWidth=2;" vertex="1" parent="1">
          <mxGeometry x="3550" y="5079" width="100" height="51" as="geometry" />
        </mxCell>
        <mxCell id="PSCNETZQlT987C8pUvB9-148" value="Fim" style="strokeWidth=2;html=1;shape=mxgraph.flowchart.terminator;whiteSpace=wrap;" vertex="1" parent="1">
          <mxGeometry x="3375" y="5838" width="100" height="60" as="geometry" />
        </mxCell>
        <mxCell id="PSCNETZQlT987C8pUvB9-149" style="edgeStyle=orthogonalEdgeStyle;rounded=0;orthogonalLoop=1;jettySize=auto;html=1;entryX=0.5;entryY=1;entryDx=0;entryDy=0;entryPerimeter=0;" edge="1" source="PSCNETZQlT987C8pUvB9-150" target="PSCNETZQlT987C8pUvB9-157" parent="1">
          <mxGeometry relative="1" as="geometry">
            <mxPoint x="3470" y="5410" as="targetPoint" />
            <Array as="points">
              <mxPoint x="3830" y="6705" />
              <mxPoint x="3830" y="5400" />
              <mxPoint x="3605" y="5400" />
            </Array>
          </mxGeometry>
        </mxCell>
        <mxCell id="PSCNETZQlT987C8pUvB9-150" value="" style="strokeWidth=2;html=1;shape=mxgraph.flowchart.start_2;whiteSpace=wrap;" vertex="1" parent="1">
          <mxGeometry x="4629.5" y="6685" width="30" height="30" as="geometry" />
        </mxCell>
        <mxCell id="PSCNETZQlT987C8pUvB9-151" style="edgeStyle=orthogonalEdgeStyle;rounded=0;orthogonalLoop=1;jettySize=auto;html=1;entryX=0.5;entryY=0;entryDx=0;entryDy=0;entryPerimeter=0;" edge="1" source="PSCNETZQlT987C8pUvB9-152" target="PSCNETZQlT987C8pUvB9-157" parent="1">
          <mxGeometry relative="1" as="geometry">
            <mxPoint x="3450" y="5220" as="targetPoint" />
            <Array as="points">
              <mxPoint x="3720" y="5270" />
              <mxPoint x="3605" y="5270" />
            </Array>
          </mxGeometry>
        </mxCell>
        <mxCell id="PSCNETZQlT987C8pUvB9-152" value="" style="strokeWidth=2;html=1;shape=mxgraph.flowchart.start_2;whiteSpace=wrap;" vertex="1" parent="1">
          <mxGeometry x="3705" y="5210" width="30" height="30" as="geometry" />
        </mxCell>
        <mxCell id="PSCNETZQlT987C8pUvB9-153" value="Sim" style="text;html=1;strokeColor=none;fillColor=none;align=center;verticalAlign=middle;whiteSpace=wrap;rounded=0;" vertex="1" parent="1">
          <mxGeometry x="3465" y="3780" width="60" height="30" as="geometry" />
        </mxCell>
        <mxCell id="PSCNETZQlT987C8pUvB9-154" style="edgeStyle=orthogonalEdgeStyle;rounded=0;orthogonalLoop=1;jettySize=auto;html=1;" edge="1" source="PSCNETZQlT987C8pUvB9-155" target="PSCNETZQlT987C8pUvB9-140" parent="1">
          <mxGeometry relative="1" as="geometry" />
        </mxCell>
        <mxCell id="PSCNETZQlT987C8pUvB9-155" value="parada == false;" style="rounded=1;whiteSpace=wrap;html=1;absoluteArcSize=1;arcSize=14;strokeWidth=2;" vertex="1" parent="1">
          <mxGeometry x="3670" y="4746" width="100" height="51" as="geometry" />
        </mxCell>
        <mxCell id="PSCNETZQlT987C8pUvB9-207" style="edgeStyle=orthogonalEdgeStyle;rounded=0;orthogonalLoop=1;jettySize=auto;html=1;entryX=0.5;entryY=0;entryDx=0;entryDy=0;entryPerimeter=0;" edge="1" parent="1" source="PSCNETZQlT987C8pUvB9-157" target="PSCNETZQlT987C8pUvB9-148">
          <mxGeometry relative="1" as="geometry">
            <Array as="points">
              <mxPoint x="3425" y="5354" />
            </Array>
          </mxGeometry>
        </mxCell>
        <mxCell id="PSCNETZQlT987C8pUvB9-157" value="" style="strokeWidth=2;html=1;shape=mxgraph.flowchart.start_2;whiteSpace=wrap;" vertex="1" parent="1">
          <mxGeometry x="3590" y="5338.97" width="30" height="30" as="geometry" />
        </mxCell>
        <mxCell id="PSCNETZQlT987C8pUvB9-158" style="edgeStyle=orthogonalEdgeStyle;rounded=0;orthogonalLoop=1;jettySize=auto;html=1;" edge="1" source="PSCNETZQlT987C8pUvB9-160" target="PSCNETZQlT987C8pUvB9-65" parent="1">
          <mxGeometry relative="1" as="geometry" />
        </mxCell>
        <mxCell id="PSCNETZQlT987C8pUvB9-159" style="edgeStyle=orthogonalEdgeStyle;rounded=0;orthogonalLoop=1;jettySize=auto;html=1;" edge="1" source="PSCNETZQlT987C8pUvB9-160" target="PSCNETZQlT987C8pUvB9-168" parent="1">
          <mxGeometry relative="1" as="geometry">
            <mxPoint x="5115" y="5475" as="targetPoint" />
          </mxGeometry>
        </mxCell>
        <mxCell id="PSCNETZQlT987C8pUvB9-160" value="cadastro == true" style="strokeWidth=2;html=1;shape=mxgraph.flowchart.decision;whiteSpace=wrap;" vertex="1" parent="1">
          <mxGeometry x="4612.5" y="4390" width="123" height="100" as="geometry" />
        </mxCell>
        <mxCell id="PSCNETZQlT987C8pUvB9-161" value="Sim" style="text;html=1;strokeColor=none;fillColor=none;align=center;verticalAlign=middle;whiteSpace=wrap;rounded=0;" vertex="1" parent="1">
          <mxGeometry x="4613" y="4720" width="60" height="30" as="geometry" />
        </mxCell>
        <mxCell id="PSCNETZQlT987C8pUvB9-162" value="NÃ£o" style="text;html=1;strokeColor=none;fillColor=none;align=center;verticalAlign=middle;whiteSpace=wrap;rounded=0;" vertex="1" parent="1">
          <mxGeometry x="4733" y="4631" width="60" height="30" as="geometry" />
        </mxCell>
        <mxCell id="PSCNETZQlT987C8pUvB9-163" style="edgeStyle=orthogonalEdgeStyle;rounded=0;orthogonalLoop=1;jettySize=auto;html=1;" edge="1" source="PSCNETZQlT987C8pUvB9-164" target="PSCNETZQlT987C8pUvB9-116" parent="1">
          <mxGeometry relative="1" as="geometry" />
        </mxCell>
        <mxCell id="PSCNETZQlT987C8pUvB9-164" value="cadastrou == true;" style="rounded=1;whiteSpace=wrap;html=1;absoluteArcSize=1;arcSize=14;strokeWidth=2;" vertex="1" parent="1">
          <mxGeometry x="5480.010000000001" y="6238.029999999999" width="100" height="50" as="geometry" />
        </mxCell>
        <mxCell id="PSCNETZQlT987C8pUvB9-165" value="Sim" style="text;html=1;strokeColor=none;fillColor=none;align=center;verticalAlign=middle;whiteSpace=wrap;rounded=0;" vertex="1" parent="1">
          <mxGeometry x="4616.5" y="4495" width="60" height="30" as="geometry" />
        </mxCell>
        <mxCell id="PSCNETZQlT987C8pUvB9-166" value="NÃ£o" style="text;html=1;strokeColor=none;fillColor=none;align=center;verticalAlign=middle;whiteSpace=wrap;rounded=0;" vertex="1" parent="1">
          <mxGeometry x="4761.5" y="4415" width="60" height="30" as="geometry" />
        </mxCell>
        <mxCell id="PSCNETZQlT987C8pUvB9-167" style="edgeStyle=orthogonalEdgeStyle;rounded=0;orthogonalLoop=1;jettySize=auto;html=1;entryX=1;entryY=0.5;entryDx=0;entryDy=0;entryPerimeter=0;" edge="1" source="PSCNETZQlT987C8pUvB9-168" target="PSCNETZQlT987C8pUvB9-170" parent="1">
          <mxGeometry relative="1" as="geometry">
            <mxPoint x="5155" y="6195" as="targetPoint" />
            <Array as="points">
              <mxPoint x="5115" y="4440" />
              <mxPoint x="5115" y="6630" />
            </Array>
          </mxGeometry>
        </mxCell>
        <mxCell id="PSCNETZQlT987C8pUvB9-168" value="&quot;Cadastre alunos primeiro.&quot;" style="strokeWidth=2;html=1;shape=mxgraph.flowchart.display;whiteSpace=wrap;" vertex="1" parent="1">
          <mxGeometry x="4908" y="4410" width="100" height="60" as="geometry" />
        </mxCell>
        <mxCell id="PSCNETZQlT987C8pUvB9-169" style="edgeStyle=orthogonalEdgeStyle;rounded=0;orthogonalLoop=1;jettySize=auto;html=1;entryX=0.5;entryY=0;entryDx=0;entryDy=0;entryPerimeter=0;" edge="1" source="PSCNETZQlT987C8pUvB9-170" target="PSCNETZQlT987C8pUvB9-150" parent="1">
          <mxGeometry relative="1" as="geometry" />
        </mxCell>
        <mxCell id="PSCNETZQlT987C8pUvB9-170" value="" style="strokeWidth=2;html=1;shape=mxgraph.flowchart.start_2;whiteSpace=wrap;" vertex="1" parent="1">
          <mxGeometry x="4629.5" y="6615" width="30" height="30" as="geometry" />
        </mxCell>
        <mxCell id="PSCNETZQlT987C8pUvB9-171" style="edgeStyle=orthogonalEdgeStyle;rounded=0;orthogonalLoop=1;jettySize=auto;html=1;" edge="1" source="PSCNETZQlT987C8pUvB9-173" target="PSCNETZQlT987C8pUvB9-177" parent="1">
          <mxGeometry relative="1" as="geometry">
            <mxPoint x="4528.5" y="5500" as="targetPoint" />
          </mxGeometry>
        </mxCell>
        <mxCell id="PSCNETZQlT987C8pUvB9-172" style="edgeStyle=orthogonalEdgeStyle;rounded=0;orthogonalLoop=1;jettySize=auto;html=1;entryX=0.5;entryY=0;entryDx=0;entryDy=0;" edge="1" source="PSCNETZQlT987C8pUvB9-173" target="PSCNETZQlT987C8pUvB9-101" parent="1">
          <mxGeometry relative="1" as="geometry" />
        </mxCell>
        <mxCell id="PSCNETZQlT987C8pUvB9-173" value="cadastro == true" style="strokeWidth=2;html=1;shape=mxgraph.flowchart.decision;whiteSpace=wrap;" vertex="1" parent="1">
          <mxGeometry x="3918.5" y="4474" width="123" height="100" as="geometry" />
        </mxCell>
        <mxCell id="PSCNETZQlT987C8pUvB9-174" value="Sim" style="text;html=1;strokeColor=none;fillColor=none;align=center;verticalAlign=middle;whiteSpace=wrap;rounded=0;" vertex="1" parent="1">
          <mxGeometry x="3920" y="4580" width="60" height="30" as="geometry" />
        </mxCell>
        <mxCell id="PSCNETZQlT987C8pUvB9-175" value="NÃ£o" style="text;html=1;strokeColor=none;fillColor=none;align=center;verticalAlign=middle;whiteSpace=wrap;rounded=0;" vertex="1" parent="1">
          <mxGeometry x="4070" y="4495" width="60" height="30" as="geometry" />
        </mxCell>
        <mxCell id="PSCNETZQlT987C8pUvB9-176" style="edgeStyle=orthogonalEdgeStyle;rounded=0;orthogonalLoop=1;jettySize=auto;html=1;entryX=1;entryY=0.5;entryDx=0;entryDy=0;entryPerimeter=0;" edge="1" source="PSCNETZQlT987C8pUvB9-177" target="PSCNETZQlT987C8pUvB9-179" parent="1">
          <mxGeometry relative="1" as="geometry">
            <mxPoint x="4260" y="5170" as="targetPoint" />
            <Array as="points">
              <mxPoint x="4260" y="5225" />
            </Array>
          </mxGeometry>
        </mxCell>
        <mxCell id="PSCNETZQlT987C8pUvB9-177" value="&quot;Cadastre alunos primeiro.&quot;" style="strokeWidth=2;html=1;shape=mxgraph.flowchart.display;whiteSpace=wrap;" vertex="1" parent="1">
          <mxGeometry x="4210" y="4615.06" width="100" height="60" as="geometry" />
        </mxCell>
        <mxCell id="PSCNETZQlT987C8pUvB9-178" style="edgeStyle=orthogonalEdgeStyle;rounded=0;orthogonalLoop=1;jettySize=auto;html=1;entryX=1;entryY=0.5;entryDx=0;entryDy=0;entryPerimeter=0;" edge="1" source="PSCNETZQlT987C8pUvB9-179" target="PSCNETZQlT987C8pUvB9-152" parent="1">
          <mxGeometry relative="1" as="geometry" />
        </mxCell>
        <mxCell id="PSCNETZQlT987C8pUvB9-179" value="" style="strokeWidth=2;html=1;shape=mxgraph.flowchart.start_2;whiteSpace=wrap;" vertex="1" parent="1">
          <mxGeometry x="3965" y="5210" width="30" height="30" as="geometry" />
        </mxCell>
        <mxCell id="PSCNETZQlT987C8pUvB9-184" style="edgeStyle=orthogonalEdgeStyle;rounded=0;orthogonalLoop=1;jettySize=auto;html=1;entryX=0;entryY=0.5;entryDx=0;entryDy=0;" edge="1" parent="1" source="PSCNETZQlT987C8pUvB9-182" target="PSCNETZQlT987C8pUvB9-16">
          <mxGeometry relative="1" as="geometry">
            <Array as="points">
              <mxPoint x="5530" y="4720" />
              <mxPoint x="5410" y="4720" />
              <mxPoint x="5410" y="4470" />
            </Array>
          </mxGeometry>
        </mxCell>
        <mxCell id="PSCNETZQlT987C8pUvB9-182" value="cadastroAlunos[i].media += cadastroAlunos[i].notas[j];" style="rounded=1;whiteSpace=wrap;html=1;absoluteArcSize=1;arcSize=14;strokeWidth=2;" vertex="1" parent="1">
          <mxGeometry x="5459.719999999999" y="4627.03" width="140.14" height="50" as="geometry" />
        </mxCell>
        <mxCell id="PSCNETZQlT987C8pUvB9-191" style="edgeStyle=orthogonalEdgeStyle;rounded=0;orthogonalLoop=1;jettySize=auto;html=1;entryX=0.462;entryY=0.04;entryDx=0;entryDy=0;entryPerimeter=0;" edge="1" parent="1" source="PSCNETZQlT987C8pUvB9-187" target="PSCNETZQlT987C8pUvB9-22">
          <mxGeometry relative="1" as="geometry" />
        </mxCell>
        <mxCell id="PSCNETZQlT987C8pUvB9-187" value="cadastroAlunos[i].media = cadastroAlunos[i].notas[j]/4;" style="rounded=1;whiteSpace=wrap;html=1;absoluteArcSize=1;arcSize=14;strokeWidth=2;" vertex="1" parent="1">
          <mxGeometry x="5445.92" y="4822.03" width="157.04" height="50" as="geometry" />
        </mxCell>
        <mxCell id="PSCNETZQlT987C8pUvB9-201" value="cadastroAlunos[i].media" style="strokeWidth=2;html=1;shape=mxgraph.flowchart.display;whiteSpace=wrap;" vertex="1" parent="1">
          <mxGeometry x="4505.000000000001" y="6134.999999999999" width="146" height="60" as="geometry" />
        </mxCell>
        <mxCell id="PSCNETZQlT987C8pUvB9-205" style="edgeStyle=orthogonalEdgeStyle;rounded=0;orthogonalLoop=1;jettySize=auto;html=1;entryX=0;entryY=0.5;entryDx=0;entryDy=0;entryPerimeter=0;" edge="1" parent="1" source="PSCNETZQlT987C8pUvB9-201" target="PSCNETZQlT987C8pUvB9-96">
          <mxGeometry relative="1" as="geometry">
            <mxPoint x="4578" y="6195" as="sourcePoint" />
            <mxPoint x="4667" y="6225" as="targetPoint" />
            <Array as="points">
              <mxPoint x="4578" y="6225" />
            </Array>
          </mxGeometry>
        </mxCell>
      </root>
    </mxGraphModel>
  </diagram>
</mxfile>
